<svg width="17" height="22" viewBox="0 0 17 22" fill="none" xmlns="http://www.w3.org/2000/svg">
<mask id="mask0" mask-type="alpha" maskUnits="userSpaceOnUse" x="0" y="0" width="17" height="22">
<path fill-rule="evenodd" clip-rule="evenodd" d="M14.1375 7.665H13.1847V5.75928C13.1847 3.1294 11.0503 0.994995 8.42037 0.994995C5.79049 0.994995 3.65609 3.1294 3.65609 5.75928H5.5618C5.5618 4.17754 6.83863 2.90071 8.42037 2.90071C10.0021 2.90071 11.2789 4.17754 11.2789 5.75928V7.665H2.70323C1.65509 7.665 0.797516 8.52257 0.797516 9.57071V19.0993C0.797516 20.1474 1.65509 21.005 2.70323 21.005H14.1375C15.1857 21.005 16.0432 20.1474 16.0432 19.0993V9.57071C16.0432 8.52257 15.1857 7.665 14.1375 7.665ZM2.70323 19.0993V9.57071H14.1375V19.0993H2.70323ZM10.3261 14.335C10.3261 15.3831 9.46852 16.2407 8.42037 16.2407C7.37223 16.2407 6.51466 15.3831 6.51466 14.335C6.51466 13.2869 7.37223 12.4293 8.42037 12.4293C9.46852 12.4293 10.3261 13.2869 10.3261 14.335Z" fill="white"/>
</mask>
<g mask="url(#mask0)">
<rect x="-4" y="-1" width="24" height="24" fill="#66788A"/>
</g>
</svg>
